<svg xmlns="http://www.w3.org/2000/svg" viewBox="0 0 32 32" width="32" height="32">
  <defs>
    <linearGradient id="shieldBlue" x1="0%" y1="0%" x2="100%" y2="100%">
      <stop offset="0%" stop-color="#2563EB"/>
      <stop offset="100%" stop-color="#1d4ed8"/>
    </linearGradient>
    <linearGradient id="shieldGold" x1="0%" y1="0%" x2="100%" y2="100%">
      <stop offset="0%" stop-color="#FBBF24"/>
      <stop offset="100%" stop-color="#F59E0B"/>
    </linearGradient>
  </defs>

  <!-- Shield Blue -->
  <path d="M16,1 L30,5 L30,20 Q30,28 16,31 Q2,28 2,20 L2,5 Z" fill="url(#shieldBlue)"/>

  <!-- Shield Gold bottom -->
  <path d="M16,24 Q2,21 2,20 Q2,28 16,31 Q30,28 30,20 Q30,21 16,24 Z" fill="url(#shieldGold)"/>

  <!-- Soccer ball (simplified) -->
  <circle cx="16" cy="13" r="7" fill="white"/>
  <g fill="#1d4ed8">
    <polygon points="16,8 18,10 17,12 15,12 14,10"/>
    <circle cx="16" cy="13" r="2"/>
  </g>
</svg>
